<?xml version="1.0" encoding="UTF-8" standalone="no"?>
<!-- Created with Inkscape (http://www.inkscape.org/) -->

<svg
   version="1.1"
   id="svg2"
   width="882"
   height="333"
   viewBox="0 0 882 333"
   sodipodi:docname="logo teste.svg"
   inkscape:export-filename="logo teste.png"
   inkscape:export-xdpi="96"
   inkscape:export-ydpi="96"
   inkscape:version="1.2.2 (732a01da63, 2022-12-09)"
   xmlns:inkscape="http://www.inkscape.org/namespaces/inkscape"
   xmlns:sodipodi="http://sodipodi.sourceforge.net/DTD/sodipodi-0.dtd"
   xmlns="http://www.w3.org/2000/svg"
   xmlns:svg="http://www.w3.org/2000/svg">
  <defs
     id="defs6" />
  <sodipodi:namedview
     id="namedview4"
     pagecolor="#ffffff"
     bordercolor="#111111"
     borderopacity="1"
     inkscape:showpageshadow="0"
     inkscape:pageopacity="0"
     inkscape:pagecheckerboard="1"
     inkscape:deskcolor="#d1d1d1"
     showgrid="false"
     inkscape:zoom="0.99973034"
     inkscape:cx="452.12192"
     inkscape:cy="56.015105"
     inkscape:window-width="1920"
     inkscape:window-height="1017"
     inkscape:window-x="-8"
     inkscape:window-y="-8"
     inkscape:window-maximized="1"
     inkscape:current-layer="g8" />
  <g
     inkscape:groupmode="layer"
     inkscape:label="Image"
     id="g8">
    <path
       style="fill:#e3edf6"
       d="m 116.68912,314.34259 c -4.4073,-1.20337 -6.97062,-2.71775 -10.62468,-6.27691 -3.72277,-3.62609 -5.21036,-6.03856 -6.553439,-10.62788 -1.03709,-3.54373 -1.74494,-9.36342 -1.75599,-14.43699 -0.0102,-4.675 0.68972,-11.15312 1.55531,-14.39582 0.865599,-3.2427 2.857139,-7.5177 4.425639,-9.5 1.56851,-1.9823 5.71392,-5.06668 9.21202,-6.85418 5.94496,-3.03783 7.0253,-3.25 16.54847,-3.25 7.60928,0 11.67086,0.51008 16.04512,2.01505 3.22126,1.10827 6.20982,2.57077 6.64124,3.25 0.43142,0.67922 0.7913,3.12089 0.79972,5.42593 0.008,2.30504 -0.43894,4.47173 -0.99413,4.81485 -0.55519,0.34313 -4.04269,-0.59424 -7.75,-2.08304 -3.70731,-1.4888 -8.60999,-2.92165 -10.89484,-3.18411 -2.61629,-0.30054 -5.86444,0.17591 -8.77361,1.28693 -2.54063,0.97028 -5.93977,3.26804 -7.55364,5.10613 -1.61387,1.8381 -3.45551,5.26041 -4.09253,7.60513 -0.66453,2.44601 -0.94038,7.50104 -0.64716,11.85958 0.28108,4.17804 1.23286,8.99228 2.11508,10.6983 0.88222,1.70603 3.23353,4.34474 5.22513,5.86381 2.85932,2.1809 4.96283,2.84738 9.99899,3.16805 4.75557,0.30282 7.01433,-0.0109 8.87995,-1.2333 2.09144,-1.37036 2.50207,-2.42338 2.50207,-6.41636 0,-2.62732 -0.54,-5.31695 -1.2,-5.97695 -0.66,-0.66 -2.88344,-1.2 -4.94098,-1.2 -2.05754,0 -4.06205,-0.5195 -4.45447,-1.15444 -0.39242,-0.63494 -0.84041,-2.31075 -0.99555,-3.72401 -0.15514,-1.41326 0.19447,-3.14376 0.77691,-3.84556 0.74311,-0.89539 4.39301,-1.27599 12.23653,-1.27599 7.36033,0 11.58737,0.40981 12.37756,1.2 0.8068,0.8068 1.2,5.34334 1.2,13.84501 0,11.29793 -0.20924,12.83437 -1.96408,14.42248 -1.08024,0.9776 -4.56774,2.66505 -7.75,3.74988 -3.48414,1.18773 -9.36634,2.11921 -14.78592,2.34141 -6.14322,0.25188 -10.84381,-0.13442 -14.80872,-1.217 z m 48.00299,-0.79036 c -1.5151,-1.5151 -1.69427,-4.7862 -1.69427,-30.93172 0,-22.4178 0.30336,-29.65231 1.30056,-31.01607 1.17984,-1.61352 2.87394,-1.74022 18.25,-1.36494 12.47452,0.30447 18.35996,0.87309 22.29198,2.15372 3.5298,1.14964 6.81255,3.21005 9.67503,6.07252 2.38287,2.38288 4.86375,6.06558 5.51307,8.18378 0.64933,2.11821 1.41356,8.0555 1.69831,13.19397 0.39357,7.10241 0.0929,10.91195 -1.25376,15.88706 -1.34123,4.9549 -2.76772,7.57916 -5.87334,10.80494 -2.87376,2.98496 -5.74854,4.7732 -9.60185,5.97277 -3.84539,1.1971 -10.48061,1.86653 -22.05573,2.22522 -14.65825,0.45422 -16.7499,0.31884 -18.25,-1.18125 z m 33.00414,-11.64747 c 2.93467,-1.42065 5.15884,-3.5106 6.90254,-6.48599 2.22054,-3.78907 2.56946,-5.54377 2.54918,-12.81967 -0.018,-6.46708 -0.49664,-9.35719 -2.05572,-12.41324 -1.11773,-2.19093 -3.56319,-4.92969 -5.43435,-6.08613 -2.27612,-1.40672 -5.9183,-2.31532 -11.00453,-2.74526 -5.47874,-0.46313 -8.02883,-0.28873 -9.12897,0.62429 -1.26777,1.05216 -1.52656,4.39351 -1.52656,19.71024 0,10.80108 0.42894,19.24478 1.03518,20.37755 0.86412,1.61462 2.13397,1.93426 7.68428,1.93426 4.70684,0 7.91388,-0.61227 10.97895,-2.09605 z M 124.04212,191.52451 c -1.27828,-0.68412 -2.92022,-2.31931 -3.64877,-3.63377 -0.72855,-1.31446 -1.34059,-4.05087 -1.36007,-6.08091 -0.0195,-2.03004 0.41456,-3.9691 0.96456,-4.30902 0.61605,-0.38074 1,1.31342 1,4.41239 0,4.83102 0.12883,5.06476 3.25,5.89655 1.99407,0.53142 4.12876,0.47622 5.52398,-0.14285 1.25068,-0.55493 2.53771,-2.05978 2.86005,-3.3441 0.32235,-1.28433 0.29219,-3.90171 -0.067,-5.81641 -0.3592,-1.9147 -1.50414,-3.93674 -2.54431,-4.49343 -1.04019,-0.55668 -2.82082,-1.01215 -3.95698,-1.01215 -1.13616,0 -2.06574,-0.52816 -2.06574,-1.17368 0,-0.64553 4.3875,-5.36898 9.75,-10.49656 5.3625,-5.12759 10.25002,-9.32443 10.86116,-9.32632 0.61114,-0.002 3.19864,1.94051 5.75,4.31645 2.55136,2.37594 4.63884,4.94517 4.63884,5.7094 0,0.76423 -4.05983,5.23278 -9.02185,9.93011 -5.00572,4.7387 -9.01213,9.34932 -9,10.35732 0.012,0.9992 -1.13017,3.3271 -2.53819,5.17311 -1.40802,1.84601 -3.80013,3.78868 -5.31579,4.31704 -1.93369,0.67409 -3.44908,0.58961 -5.07989,-0.28317 z m 60.49052,-2.62729 c -2.23152,-1.9593 -3.5348,-4.00267 -3.5348,-5.5421 0,-1.83481 -6.25107,-8.86597 -25.25,-28.40102 -13.8875,-14.27939 -25.40323,-26.67559 -25.5905,-27.54712 -0.18728,-0.87152 0.67866,-2.66945 1.92431,-3.99538 1.29749,-1.38111 3.40602,-2.41079 4.93674,-2.41079 1.98477,0 5.41157,2.50741 13.32499,9.75 5.85919,5.3625 18.98049,17.85 29.15843,27.75 l 18.50536,18 -0.005,5.29545 c -0.004,4.28529 -0.4729,5.76369 -2.45922,7.75 -1.35,1.35 -3.58434,2.45455 -4.9652,2.45455 -1.38228,0 -4.09931,-1.39486 -6.04545,-3.10359 z m -17.0348,-48.03771 c -2.2,-1.65239 -4.35425,-3.63654 -4.78721,-4.40922 -0.44974,-0.80262 -0.14468,-2.6474 0.71158,-4.30323 0.91648,-1.77227 3.06782,-3.52615 5.53721,-4.5142 3.42925,-1.37212 4.03842,-2.0571 4.03842,-4.54105 0,-1.60885 -0.90829,-5.04415 -2.01843,-7.63399 l -2.01843,-4.70881 7.56802,-7.3741 c 6.33454,-6.17222 8.11044,-7.3741 10.89599,-7.3741 1.83038,0 3.86372,0.64556 4.51855,1.43457 0.96737,1.16562 0.16677,2.54822 -4.27043,7.37478 -3.00355,3.26712 -5.7574,6.87407 -6.11966,8.01545 -0.37227,1.1729 0.007,3.36303 0.87289,5.03693 0.84235,1.62892 2.72622,3.90141 4.18638,5.04997 1.52345,1.19835 4.12056,2.0883 6.09422,2.0883 2.80334,0 4.50569,-1.0171 9.20555,-5.5 3.1714,-3.025 6.27216,-5.5 6.89058,-5.5 0.61842,0 1.59024,0.87042 2.15959,1.93426 0.56935,1.06384 1.03518,2.92247 1.03518,4.13028 0,1.39715 -2.54409,4.6951 -6.99345,9.06574 -4.46103,4.3821 -7.80757,6.86972 -9.24168,6.86972 -1.23652,0 -5.80047,-0.55894 -10.14212,-1.2421 -6.28731,-0.9893 -8.195,-1.70164 -9.37334,-3.5 -0.81368,-1.24184 -1.90757,-2.2579 -2.43084,-2.2579 -0.52328,0 -0.80902,1.2375 -0.63499,2.75 0.19556,1.69965 1.1758,3.12703 2.56642,3.73713 1.30952,0.57451 2.25,1.86821 2.25,3.09501 0,1.15934 -0.82293,2.85263 -1.82874,3.76287 -1.00581,0.91025 -2.46831,1.62417 -3.25,1.58651 -0.78169,-0.0377 -3.22126,-1.42044 -5.42126,-3.07282 z m -61.3,-7.0587 c -0.66,-0.66 -1.2,-1.9354 -1.2,-2.83422 0,-0.89882 1.84022,-4.29632 4.08937,-7.55 2.24916,-3.25368 8.87898,-10.75328 14.73295,-16.66578 8.05796,-8.13853 11.27031,-10.75 13.22353,-10.75 1.52134,0 3.68255,1.15085 5.26706,2.80472 1.4779,1.54259 2.68709,3.57613 2.68709,4.51898 0,0.94284 -2.3625,4.27569 -5.25,7.40634 -2.8875,3.13064 -7.05,7.41631 -9.25,9.5237 -2.2,2.10739 -7.6,6.28934 -12,9.29321 -4.4,3.00388 -8.6975,5.45968 -9.55,5.45732 -0.8525,-0.002 -2.09,-0.54427 -2.75,-1.20427 z"
       id="path186" />
    <path
       style="fill:#f35d07"
       d="m 78.354841,229.02158 c -1.17865,-0.48244 -2.86615,-1.9096 -3.75,-3.17147 -1.42292,-2.0315 -1.60531,-7.85314 -1.59226,-50.82181 0.0112,-36.97974 0.3142,-49.1224 1.27317,-51.02749 0.82369,-1.63633 2.26979,-2.616 4.18595,-2.83579 1.94139,-0.22268 3.36518,0.26276 4.22683,1.44113 1.02091,1.39618 1.29931,11.57698 1.29931,47.51436 0,40.24616 0.18867,45.92611 1.57143,47.30887 1.39895,1.39895 9.33463,1.57143 72.299999,1.57143 53.67778,0 71.01786,-0.28929 71.92857,-1.2 0.89823,-0.89823 1.2,-12.66167 1.2,-46.77749 0,-39.63273 0.20304,-45.86738 1.5567,-47.8 0.85619,-1.22238 2.58645,-2.22251 3.84502,-2.22251 1.25857,0 3.03305,0.82293 3.94329,1.82874 1.49401,1.65086 1.65499,6.74241 1.65499,52.34501 0,50.08292 -0.018,50.53262 -2.10458,52.42126 -2.02801,1.83568 -4.96616,1.91223 -80.75,2.10395 -43.32367,0.1096 -79.607899,-0.19499 -80.788419,-0.67819 z M 679.49784,184.54995 c -2.2,-0.80913 -5.01026,-2.72619 -6.24503,-4.26014 -2.0383,-2.53218 -2.24549,-3.86346 -2.25,-14.45721 -0.003,-6.41752 0.26817,-12.38002 0.60202,-13.25 0.33384,-0.86999 1.69498,-1.58179 3.02475,-1.58179 1.67381,0 2.7172,0.78758 3.3909,2.55955 0.53523,1.40776 0.87593,6.78676 0.75711,11.95335 -0.19974,8.68534 -0.0356,9.58585 2.17642,11.94045 1.61736,1.7216 3.45152,2.54665 5.66144,2.54665 2.24446,0 3.75687,-0.69655 4.82569,-2.22251 1.14953,-1.64118 1.5567,-4.76289 1.5567,-11.9349 0,-5.34181 0.43886,-10.86669 0.97525,-12.27749 0.59583,-1.56716 1.74928,-2.5651 2.96482,-2.5651 1.09426,0 2.4554,0.87042 3.02475,1.93426 0.56935,1.06384 1.03518,5.50103 1.03518,9.86043 0,4.35939 -0.2898,10.0405 -0.644,12.62468 -0.51836,3.78184 -1.30698,5.2042 -4.04216,7.29042 -2.24978,1.71599 -4.98912,2.71332 -8.106,2.95119 -2.59192,0.19782 -6.50562,-0.3019 -8.70784,-1.11184 z m 75.71236,-0.53906 c -3.08519,-1.40025 -4.69775,-2.92754 -5.75,-5.44592 -0.97991,-2.34526 -1.46236,-7.09913 -1.46236,-14.4096 0,-8.73415 0.31583,-11.17179 1.58382,-12.22413 1.14635,-0.95138 2.04405,-1.02539 3.25,-0.26795 1.33271,0.83706 1.76625,3.22714 2.16618,11.94201 0.27877,6.07461 1.06586,11.88584 1.77886,13.1337 0.70338,1.23101 2.39088,2.51729 3.75,2.85841 1.35913,0.34112 3.58315,0.34112 4.94228,0 1.35912,-0.34112 3.00489,-1.61755 3.65726,-2.83652 0.69038,-1.28999 1.12241,-5.77807 1.03368,-10.73819 -0.0838,-4.68704 0.0979,-9.7218 0.40384,-11.18835 0.30596,-1.46655 1.26083,-2.93682 2.12194,-3.26725 0.8611,-0.33044 2.1836,-0.0879 2.93889,0.5389 1.00741,0.83608 1.37176,3.97096 1.36767,11.76725 -0.003,5.84516 -0.48413,12.35097 -1.06904,14.45736 -0.86203,3.10442 -1.85535,4.18934 -5.24442,5.72804 -2.29953,1.04403 -5.75596,1.89824 -7.68096,1.89824 -1.925,0 -5.42944,-0.8757 -7.78764,-1.946 z m -467.01236,-0.21008 c -0.8208,-0.8208 -1.2,-5.69294 -1.2,-15.41821 0,-7.82002 0.27314,-14.93002 0.60699,-15.8 0.33384,-0.86999 1.70533,-1.58179 3.04775,-1.58179 1.37477,0 3.54756,1.19426 4.97498,2.73447 1.39381,1.50395 3.26935,3.97895 4.16785,5.5 1.15782,1.96003 2.43899,2.76553 4.39865,2.76553 2.15672,0 3.59316,-1.1093 6.52956,-5.04248 2.07051,-2.77337 4.84925,-5.31472 6.17498,-5.64746 1.70069,-0.42685 2.8237,-0.0463 3.814,1.29248 1.08741,1.47004 1.33393,5.0968 1.09441,16.10031 -0.21135,9.70911 -0.70693,14.5997 -1.56631,15.45714 -1.00822,1.00594 -1.60224,0.90993 -3,-0.48489 -1.24333,-1.24071 -1.88617,-3.95126 -2.24286,-9.45714 -0.44178,-6.81927 -0.7383,-7.75206 -2.54649,-8.01084 -1.26982,-0.18173 -3.07545,0.86194 -4.75772,2.75 -1.49117,1.67358 -3.39239,3.04288 -4.22494,3.04288 -0.83255,0 -2.01503,-1.10024 -2.62774,-2.44499 -0.6127,-1.34474 -1.72806,-2.68062 -2.47856,-2.96861 -0.7505,-0.288 -1.98905,-0.28399 -2.75234,0.009 -0.76328,0.2929 -1.64262,1.80674 -1.95409,3.36408 -0.31147,1.55735 -0.3045,4.44487 0.0155,6.41671 0.39891,2.45824 0.0629,4.37708 -1.06896,6.10453 -0.90792,1.38565 -2.00038,2.51937 -2.4277,2.51937 -0.42732,0 -1.31695,-0.54 -1.97695,-1.2 z m 66.27256,-2.24708 c -2.59063,-3.3965 -2.98263,-3.55292 -8.90416,-3.55292 -5.57709,0 -6.48057,0.29889 -9.0684,3 -1.5808,1.65 -3.46499,3 -4.18709,3 -0.7221,0 -1.31291,-1.03887 -1.31291,-2.3086 0,-1.26972 1.32594,-5.88222 2.94654,-10.25 1.62059,-4.36777 3.86105,-10.38395 4.9788,-13.36928 1.11774,-2.98533 2.6043,-5.79094 3.30346,-6.23469 0.69916,-0.44374 2.47604,-0.8137 3.94862,-0.82212 1.71362,-0.01 3.4235,0.93317 4.75,2.61955 1.13992,1.44917 2.07258,3.23686 2.07258,3.97265 0,0.73579 1.60509,6.08429 3.56687,11.88557 1.96179,5.80127 3.42429,11.51583 3.25,12.69902 -0.17428,1.18318 -0.83831,2.3228 -1.47562,2.53249 -0.63731,0.20968 -2.37822,-1.21757 -3.86869,-3.17167 z m -7.40682,-10.5881 c 1.06721,-0.57116 1.93426,-2.08518 1.93426,-3.37756 0,-1.2883 -0.65023,-2.88201 -1.44496,-3.54158 -0.79472,-0.65956 -2.48222,-1.05216 -3.75,-0.87244 -1.71431,0.24302 -2.39109,1.08296 -2.64083,3.27745 -0.22339,1.96306 0.25896,3.38557 1.44113,4.25 0.97731,0.71462 1.94549,1.29931 2.15153,1.29931 0.20604,0 1.24503,-0.46583 2.30887,-1.03518 z m 22.13426,12.83518 c -0.82489,-0.82489 -1.19521,-5.74827 -1.18469,-15.75 0.008,-8.0025 0.34592,-15.06486 0.75,-15.69414 0.40408,-0.62928 4.10969,-1.41913 8.23469,-1.75522 5.79418,-0.47209 8.63679,-0.21186 12.49814,1.14414 3.57759,1.25636 5.38103,2.56099 6.34533,4.59028 0.80467,1.69336 1.09687,4.16942 0.72558,6.14855 -0.34189,1.82242 -1.50979,4.44262 -2.59533,5.82267 -1.08555,1.38005 -1.97372,3.21366 -1.97372,4.0747 0,0.86103 0.98978,3.60278 2.19951,6.09276 1.70495,3.50931 1.93095,4.7958 1.00514,5.72161 -0.84024,0.84024 -2.00205,0.9103 -3.91857,0.2363 -1.49831,-0.52693 -3.74283,-2.52711 -4.98782,-4.44485 -1.24499,-1.91774 -2.7633,-4.07515 -3.37402,-4.79424 -0.61073,-0.71909 -2.28834,-1.16909 -3.72803,-1 -2.16937,0.25479 -2.75652,0.99243 -3.42866,4.30744 -0.44607,2.2 -1.56226,4.5625 -2.48042,5.25 -0.91817,0.6875 -1.94338,1.25 -2.27826,1.25 -0.33488,0 -1.14887,-0.54 -1.80887,-1.2 z m 15.46455,-16.86256 c 1.53711,-0.58441 3.13451,-1.59691 3.54979,-2.25 0.41527,-0.65309 0.76193,-2.05201 0.77035,-3.1087 0.008,-1.05669 -0.72943,-2.74419 -1.63968,-3.75 -1.02669,-1.13449 -3.03876,-1.82874 -5.3,-1.82874 -2.00475,0 -4.18501,0.54 -4.84501,1.2 -0.66,0.66 -1.2,2.65948 -1.2,4.4433 0,2.21791 0.70266,3.73545 2.22251,4.8 1.22237,0.85618 2.54308,1.5567 2.9349,1.5567 0.39181,0 1.97003,-0.47815 3.50714,-1.06256 z m 22.89215,15.84005 c -1.21276,-1.73146 -1.5567,-5.06007 -1.5567,-15.06574 0,-7.06378 0.46583,-13.71365 1.03518,-14.77749 0.56935,-1.06384 1.82935,-1.93426 2.8,-1.93426 0.97065,0 2.30482,0.54 2.96482,1.2 0.82088,0.82088 1.2,5.69524 1.2,15.42857 0,11.60173 -0.29011,14.51869 -1.57143,15.8 -0.86428,0.86429 -1.96377,1.57143 -2.44329,1.57143 -0.47953,0 -1.57239,-1.00013 -2.42858,-2.22251 z m 16.36901,0.14822 c -1.93438,-1.93438 -2.05241,-3.00814 -1.75,-15.91955 0.17836,-7.6149 0.6839,-14.20358 1.12342,-14.64151 0.43953,-0.43794 4.03953,-1.12104 8,-1.51801 4.20561,-0.42154 9.58965,-0.27824 12.94371,0.3445 3.3862,0.6287 6.73334,1.98421 8.15655,3.3032 1.32754,1.23032 3.21294,4.77241 4.18978,7.8713 1.69172,5.36676 1.69355,5.89616 0.0385,11.14661 -0.95567,3.03174 -2.62523,6.33921 -3.71013,7.34995 -1.0849,1.01074 -3.69987,2.35523 -5.81105,2.98775 -2.11119,0.63253 -7.72381,1.15005 -12.4725,1.15005 -7.40372,0 -8.92955,-0.29557 -10.70827,-2.07429 z m 22.29288,-5.67571 c 0.8407,-0.9625 2.06068,-3.40821 2.71105,-5.43491 0.87194,-2.71714 0.89881,-4.73845 0.10232,-7.69638 -0.60677,-2.2534 -2.27166,-4.9487 -3.79885,-6.14998 -2.32744,-1.83077 -3.51117,-2.04406 -8.22589,-1.48219 -3.2483,0.38711 -6.01994,1.32067 -6.75722,2.27602 -0.75066,0.97267 -1.24388,4.63927 -1.23469,9.17857 0.008,4.15738 0.34592,8.076 0.75,8.70805 0.40408,0.63206 1.85969,1.35827 3.23469,1.61382 1.375,0.25555 4.56776,0.52592 7.09501,0.60082 3.25349,0.0964 5.04128,-0.37474 6.12358,-1.61382 z m 24.69386,5.46998 c -1.86082,-1.254 -3.94573,-3.3915 -4.63314,-4.75 -0.6874,-1.35849 -1.25646,-5.77697 -1.26457,-9.81885 -0.01,-4.82739 0.55968,-8.55936 1.6594,-10.87686 1.13106,-2.38353 2.99632,-4.12849 5.75,-5.37916 2.24172,-1.01815 5.7084,-1.86107 7.70374,-1.87315 1.99533,-0.0121 5.14533,0.61375 7,1.39072 1.85466,0.77698 4.32919,2.46448 5.49895,3.75 1.16975,1.28553 2.68447,4.07728 3.36603,6.2039 0.68156,2.12662 1.03845,5.95582 0.79309,8.50933 -0.24536,2.55351 -1.08508,5.97175 -1.86603,7.59609 -0.78096,1.62434 -2.94897,3.98264 -4.8178,5.24067 -2.63266,1.77221 -4.79511,2.28733 -9.60212,2.28733 -4.80229,0 -6.96875,-0.51521 -9.58755,-2.28002 z m 15.51731,-5.64236 c 0.95685,-1.05732 1.98202,-3.72881 2.27816,-5.93666 0.29613,-2.20786 0.2329,-5.64288 -0.14052,-7.6334 -0.37343,-1.99051 -1.55385,-4.49401 -2.62318,-5.56334 -1.18497,-1.18497 -3.31102,-1.94422 -5.44422,-1.94422 -2.1332,0 -4.25925,0.75925 -5.44422,1.94422 -1.06933,1.06933 -2.24968,3.57244 -2.62301,5.56248 -0.37334,1.99003 -0.45374,5.61489 -0.17868,8.05523 0.27506,2.44033 1.06052,5.11222 1.74546,5.93752 0.78547,0.94644 2.98925,1.50055 5.96791,1.50055 3.38902,0 5.21383,-0.54284 6.4623,-1.92238 z m 35.32024,6.84228 c -1.54216,-0.89822 -1.75,-2.78033 -1.75,-15.84715 0,-10.65728 0.35158,-15.11176 1.25,-15.83724 0.6875,-0.55516 3.14218,-1.32138 5.45485,-1.70272 2.32845,-0.38393 6.71632,-0.17195 9.83282,0.47503 3.57784,0.74276 6.78168,2.1992 8.79514,3.99823 3.0109,2.69022 3.18431,3.24656 3.51415,11.27408 0.26462,6.44043 -0.0477,9.20745 -1.31632,11.66062 -1.03717,2.00566 -3.23814,3.93143 -5.84696,5.11587 -2.84285,1.2907 -6.42711,1.89675 -11.18368,1.89101 -3.85,-0.005 -7.7875,-0.46712 -8.75,-1.02773 z m 18.15114,-7.52135 c 1.12546,-1.43079 2.3277,-4.10146 2.67164,-5.93482 0.34394,-1.83335 0.0982,-4.93067 -0.54611,-6.88291 -0.6443,-1.95225 -2.32456,-4.45658 -3.73392,-5.56518 -1.40936,-1.1086 -3.98678,-2.01564 -5.72761,-2.01564 -1.74083,0 -3.70514,0.54 -4.36514,1.2 -0.75751,0.75751 -1.2,4.55556 -1.2,10.3 0,5.74444 0.44249,9.54249 1.2,10.3 0.66,0.66 3.10234,1.2 5.42742,1.2 3.36214,0 4.64626,-0.53247 6.27372,-2.60145 z m 20.29886,7.40145 c -0.82489,-0.82489 -1.19521,-5.74827 -1.18469,-15.75 0.008,-8.0025 0.4103,-15.1737 0.89307,-15.93599 0.56847,-0.89763 3.43591,-1.53891 8.13785,-1.81997 3.99305,-0.23869 8.31617,-0.16892 9.60693,0.15505 1.41801,0.35589 2.34684,1.33069 2.34684,2.46297 0,1.03068 -0.7118,2.14711 -1.58179,2.48095 -0.86998,0.33385 -3.53784,0.60699 -5.92857,0.60699 -2.61829,0 -4.97166,0.62488 -5.91821,1.57143 -0.86429,0.86428 -1.57143,1.88916 -1.57143,2.27749 0,0.38834 0.70052,1.7062 1.5567,2.92857 1.20024,1.71358 2.54613,2.22251 5.87756,2.22251 2.37647,0 4.81524,0.59571 5.4195,1.32379 0.80229,0.9667 0.78137,1.64108 -0.0775,2.5 -0.64692,0.64692 -3.04147,1.17621 -5.32122,1.17621 -2.74563,0 -4.70375,0.61739 -5.8,1.82874 -0.91025,1.00581 -1.65499,2.49081 -1.65499,3.3 0,0.80919 0.54,2.01126 1.2,2.67126 0.66,0.66 3.0225,1.20614 5.25,1.21365 2.2275,0.008 5.0625,0.285 6.3,0.61664 1.26263,0.33837 2.25,1.38251 2.25,2.37935 0,0.97701 -0.7118,2.04953 -1.58179,2.38337 -0.86998,0.33385 -5.05498,0.60699 -9.3,0.60699 -4.66972,0 -8.19218,-0.47397 -8.91821,-1.2 z m 68.02732,-0.75101 c -0.95003,-1.0481 -2.30756,-2.61289 -3.01675,-3.47731 -0.90843,-1.10729 -3.04179,-1.57168 -7.22006,-1.57168 -5.43004,0 -6.11785,0.25322 -8.14863,3 -1.2199,1.65 -2.98523,3 -3.92295,3 -0.93772,0 -1.97557,-0.70523 -2.30633,-1.56717 -0.33076,-0.86195 0.24963,-3.44945 1.28976,-5.75 1.04014,-2.30056 2.35054,-5.75783 2.91201,-7.68283 0.56147,-1.925 1.99934,-6.2 3.19525,-9.5 1.19592,-3.3 2.6381,-6.5625 3.20483,-7.25 0.56674,-0.6875 2.49524,-1.25 4.28555,-1.25 1.79031,0 3.78441,0.63776 4.43132,1.41725 0.64692,0.77949 3.00213,6.51699 5.23381,12.75 2.23167,6.23301 4.27365,12.95631 4.53772,14.94066 0.35981,2.70382 0.0756,3.76312 -1.13405,4.22731 -0.95106,0.36496 -2.32375,-0.16342 -3.34148,-1.28623 z m -6.39731,-14.37808 c 0.1909,-1.00601 0.0861,-2.86887 -0.23282,-4.1397 -0.31896,-1.27084 -1.35944,-2.60973 -2.31218,-2.97533 -1.09003,-0.41829 -2.20545,-0.0176 -3.00863,1.08082 -0.70201,0.96006 -1.27638,2.93455 -1.27638,4.38776 0,1.45322 0.32066,2.96287 0.71258,3.35478 0.39191,0.39192 1.85057,0.57942 3.24145,0.41667 1.50768,-0.17642 2.66903,-1.03452 2.87598,-2.125 z m 21.75311,14.1443 c -1.25652,-1.79394 -1.58312,-5.07726 -1.58312,-15.91527 0,-10.91787 0.30068,-13.90459 1.5,-14.89994 1.19672,-0.99319 1.80328,-0.99319 3,0 1.16611,0.96779 1.5,3.68076 1.5,12.18819 0,6.01881 0.46583,11.81371 1.03518,12.87755 0.81836,1.52912 2.12745,1.93747 6.25,1.94957 2.86815,0.008 5.8216,0.39985 6.56321,0.86983 0.74162,0.46998 1.18656,1.70059 0.98875,2.73469 -0.31371,1.64004 -1.46511,1.91692 -9.01527,2.16789 -8.021,0.26663 -8.77169,0.122 -10.23875,-1.97251 z m 72.72121,0.22879 c -1.75761,-1.07168 -4.00169,-3.17867 -4.98684,-4.6822 -1.33363,-2.03538 -1.78195,-4.66587 -1.75506,-10.29774 0.0247,-5.1762 0.57951,-8.58694 1.75745,-10.80425 0.98016,-1.84503 3.50694,-4.15114 5.86832,-5.35582 3.31408,-1.69072 5.44311,-2.03311 10.60029,-1.70472 4.87371,0.31033 6.79417,0.87707 7.84588,2.31538 0.76593,1.04746 1.2342,2.37267 1.04061,2.94491 -0.2123,0.62756 -2.95078,0.90336 -6.90088,0.69499 -3.60189,-0.18999 -7.46353,0.14405 -8.58141,0.74233 -1.11789,0.59827 -2.57483,2.73098 -3.23765,4.73936 -0.69678,2.11124 -0.96895,5.94008 -0.64521,9.07674 0.30795,2.98384 1.07032,6.04015 1.69414,6.79181 0.62383,0.75166 2.44302,1.65411 4.04266,2.00545 1.59963,0.35134 3.81902,0.34979 4.93196,-0.003 1.11294,-0.35324 2.46315,-1.46368 3.00046,-2.46765 0.72923,-1.36258 0.47541,-2.46297 -1.00106,-4.34001 -1.0879,-1.38347 -1.97799,-3.17908 -1.97799,-3.99068 0,-0.8116 0.81229,-1.68806 1.8051,-1.94768 0.9928,-0.25963 3.27517,-0.25628 5.07192,0.007 2.29764,0.33722 3.54215,1.20366 4.1949,2.92051 0.51044,1.34258 0.92119,4.09925 0.91277,6.12595 -0.008,2.02669 -0.34592,4.18461 -0.75,4.79537 -0.40408,0.61075 -2.17484,1.84825 -3.93503,2.75 -1.96946,1.00895 -5.62325,1.63809 -9.5,1.63579 -4.47906,-0.003 -7.22321,-0.56686 -9.49533,-1.95226 z m 72.69567,-0.044 c -1.79311,-1.79311 -2,-3.33333 -2,-14.88922 0,-10.93797 0.27342,-13.22687 1.80609,-15.11964 1.46508,-1.8093 3.13352,-2.32541 8.83653,-2.73346 4.37196,-0.31281 7.84853,-0.0652 9.19391,0.65483 1.18991,0.63682 2.16347,1.79663 2.16347,2.57736 0,0.8243 -1.36273,1.64542 -3.25,1.95829 -1.7875,0.29634 -5.05,0.65423 -7.25,0.79532 -3.56756,0.22879 -4.03484,0.56036 -4.32226,3.06699 -0.17724,1.54576 0.21536,3.45826 0.87245,4.25 0.65708,0.79174 2.90279,1.43953 4.99047,1.43953 2.08767,0 4.50757,0.27314 5.37755,0.60699 0.86999,0.33384 1.58179,1.1857 1.58179,1.89301 0,0.70731 -0.7118,1.55917 -1.58179,1.89301 -0.86998,0.33385 -3.28988,0.60699 -5.37755,0.60699 -2.08768,0 -4.33339,0.64779 -4.99047,1.43953 -0.65709,0.79174 -1.04969,2.70424 -0.87245,4.25 0.30658,2.67374 0.62888,2.83979 6.62493,3.41314 3.46646,0.33146 6.79989,1.09989 7.40762,1.70762 0.8066,0.8066 0.75931,1.52141 -0.17512,2.64733 -0.95523,1.15098 -3.27909,1.54238 -9.15761,1.54238 -6.54423,0 -8.21607,-0.33851 -9.87756,-2 z m 30.68573,0.20523 c -1.41165,-1.55986 -1.68573,-4.13425 -1.68573,-15.83397 0,-9.5332 0.38119,-14.35245 1.2,-15.17126 0.66,-0.66 1.99417,-1.2 2.96482,-1.2 0.97065,0 2.23065,0.87042 2.8,1.93426 0.56935,1.06384 1.03518,6.82384 1.03518,12.8 0,7.1178 0.41392,11.27966 1.2,12.06574 0.66,0.66 3.4725,1.20689 6.25,1.21531 2.7775,0.008 5.65678,0.39985 6.39839,0.86983 0.74162,0.46998 1.18641,1.70059 0.98842,2.73469 -0.31768,1.65925 -1.48242,1.91354 -9.91266,2.16414 -8.26982,0.24584 -9.77907,0.0338 -11.23842,-1.57874 z M 50.554546,125.7783 c -0.856187,-1.22237 -1.556704,-2.77923 -1.556704,-3.45967 0,-0.68045 3.0375,-4.11721 6.75,-7.63725 3.712499,-3.52005 10.534979,-9.70185 15.161069,-13.73735 4.6261,-4.0355 9.5761,-8.43704 11,-9.78121 1.42391,-1.34416 11.31292,-10.368 21.975569,-20.05297 10.66266,-9.68497 21.68766,-19.61895 24.5,-22.07551 2.81235,-2.45657 8.52197,-7.63157 12.68805,-11.5 4.16608,-3.86844 9.46319,-8.33889 11.77134,-9.93432 3.4304,-2.37114 4.60358,-2.71497 6.42531,-1.88305 1.22576,0.55976 4.18722,2.65553 6.58102,4.65726 2.3938,2.00174 8.68119,7.57411 13.97197,12.38305 5.29078,4.80894 12.33222,11.25752 15.64764,14.33017 3.31542,3.07266 11.20303,10.19835 17.52803,15.83487 6.325,5.63651 14.68149,13.24752 18.56997,16.91335 3.88848,3.66583 13.00098,12.00999 20.25,18.54259 8.28828,7.46916 13.18003,12.59685 13.18003,13.81574 0,1.06606 -0.46583,2.80871 -1.03518,3.87255 -0.56935,1.06384 -1.98334,1.93426 -3.14219,1.93426 -1.15885,0 -4.61441,-2.1375 -7.67901,-4.75 -3.0646,-2.6125 -8.9862,-7.9 -13.1591,-11.75 -4.1729,-3.85 -13.38456,-12.175 -20.47035,-18.5 -7.08579,-6.325 -16.76217,-15.1 -21.50305,-19.5 -4.74089,-4.4 -12.61813,-11.6 -17.50499,-16 -4.88686,-4.4 -11.76215,-10.3625 -15.27842,-13.25 -3.51627,-2.8875 -7.0139,-5.25 -7.77251,-5.25 -0.7586,0 -5.33386,3.37261 -10.16724,7.49469 -4.83338,4.12208 -13.15178,11.43458 -18.48533,16.25 -5.33355,4.81542 -14.92226,13.48031 -21.30823,19.25531 -6.38597,5.775 -16.197149,14.65066 -21.802619,19.72368 -5.60548,5.07303 -14.52528,13.06053 -19.82179,17.75 -5.46119,4.83529 -10.523199,8.52632 -11.693293,8.52632 -1.134808,0 -2.763805,-1.00013 -3.619992,-2.22251 z m 184.999994,-41 c -1.23938,-1.76947 -1.55982,-5.28571 -1.57201,-17.25 -0.008,-8.26512 -0.41701,-15.66203 -0.90796,-16.43758 -0.51833,-0.81879 -3.16201,-1.59829 -6.30438,-1.85888 -4.16614,-0.34549 -5.79849,-0.062 -7.09204,1.23152 -0.92417,0.92417 -1.68031,2.74387 -1.68031,4.04378 0,1.29991 -0.43886,3.51777 -0.97525,4.92857 -0.65573,1.72471 -1.72051,2.56008 -3.25,2.54979 -1.25111,-0.008 -2.8091,-0.35508 -3.46219,-0.77035 -0.65309,-0.41528 -1.66559,-2.01268 -2.25,-3.54979 -0.58441,-1.53711 -1.06256,-4.54428 -1.06256,-6.6826 0,-2.13831 0.49962,-4.98439 1.11027,-6.32462 0.61065,-1.34023 2.20683,-2.93641 3.54705,-3.54706 1.38519,-0.63113 8.02662,-1.11027 15.38973,-1.11027 11.564,0 13.16468,0.21173 14.92751,1.97456 1.08601,1.08601 2.2409,3.03573 2.56642,4.3327 0.32552,1.29698 0.44947,10.34558 0.27544,20.108 -0.28899,16.21123 -0.48469,17.87273 -2.25755,19.1673 -1.06762,0.77959 -2.7296,1.41744 -3.6933,1.41744 -0.96369,0 -2.45268,-1.00013 -3.30887,-2.22251 z"
       id="path182" />
    <path
       style="fill:#f35d07;fill-opacity:1"
       d="m 74.643861,228.54856 -2.64602,-2.45225 v -51.0955 -51.0955 l 2.64602,-2.45225 c 1.45532,-1.34874 3.48032,-2.45225 4.5,-2.45225 1.01969,0 2.75398,0.9 3.85398,2 1.94115,1.94114 2,3.33333 2,47.30887 0,34.82107 0.29118,45.70708 1.25793,47.02919 1.16893,1.59861 6.23925,1.72156 71.662149,1.73778 56.59955,0.014 70.5655,-0.23678 71.22676,-1.27919 0.45239,-0.71316 0.82943,-21.59846 0.83785,-46.41179 0.015,-44.11573 0.0612,-45.17351 2.08789,-47.75 1.13992,-1.44917 2.87923,-2.63486 3.86514,-2.63486 0.98591,0 2.97825,0.93266 4.42742,2.07258 l 2.63486,2.07258 v 51.85484 51.85484 l -2.63486,2.07258 c -2.61588,2.05765 -3.21265,2.07258 -82.85398,2.07258 H 77.289891 Z m 165.249399,-0.95274 c 2.08653,-1.88864 2.10458,-2.33834 2.10458,-52.42126 0,-45.6026 -0.16098,-50.69415 -1.65499,-52.34501 -0.91024,-1.00581 -2.68472,-1.82874 -3.94329,-1.82874 -1.25857,0 -2.98883,1.00013 -3.84502,2.22251 -1.35366,1.93262 -1.5567,8.16727 -1.5567,47.8 0,34.11582 -0.30177,45.87926 -1.2,46.77749 -0.91071,0.91071 -18.25079,1.2 -71.92857,1.2 -62.965369,0 -70.901049,-0.17248 -72.299999,-1.57143 -1.38276,-1.38276 -1.57143,-7.06271 -1.57143,-47.30887 0,-35.93738 -0.2784,-46.11818 -1.29931,-47.51436 -0.86165,-1.17837 -2.28544,-1.66381 -4.22683,-1.44113 -1.91616,0.21979 -3.36226,1.19946 -4.18595,2.83579 -0.95897,1.90509 -1.26193,14.04775 -1.27317,51.02749 -0.0131,42.96867 0.16934,48.79031 1.59226,50.82181 0.88385,1.26187 2.57135,2.68903 3.75,3.17147 1.18052,0.4832 37.464749,0.78779 80.788419,0.67819 75.78384,-0.19172 78.72199,-0.26827 80.75,-2.10395 z m 47.10458,-42.59501 c -1.81955,-1.81955 -2,-3.33333 -2,-16.77749 0,-11.75632 0.31826,-15.23188 1.5567,-17 0.85619,-1.22238 2.46077,-2.22251 3.56575,-2.22251 1.10497,0 2.82935,0.43902 3.83196,0.9756 1.0026,0.53658 3.44727,3.23658 5.43259,6 1.98532,2.76342 4.28617,5.0244 5.113,5.0244 0.82683,0 3.12768,-2.26098 5.113,-5.0244 1.98532,-2.76342 4.42999,-5.46342 5.43259,-6 1.00261,-0.53658 2.73668,-0.9756 3.85348,-0.9756 1.11681,0 2.4964,0.87042 3.06575,1.93426 0.5812,1.08599 1.03518,8.49273 1.03518,16.88921 0,13.12089 -0.22944,15.23831 -1.87086,17.26537 -1.80281,2.22639 -1.96494,2.24877 -4.45785,0.61535 -2.35808,-1.54507 -2.61285,-2.37414 -2.87914,-9.36937 -0.17893,-4.70006 -0.742,-7.82307 -1.45287,-8.05814 -0.63839,-0.2111 -2.56641,0.99028 -4.28448,2.66975 -1.71806,1.67946 -3.74571,3.05357 -4.50587,3.05357 -0.76017,0 -2.25482,-1.19802 -3.32145,-2.66228 -1.28958,-1.77031 -2.49016,-2.4509 -3.58341,-2.03138 -1.29322,0.49626 -1.64407,2.02471 -1.64407,7.16228 0,5.19805 -0.40829,6.93967 -2,8.53138 -1.1,1.1 -2.45,2 -3,2 -0.55,0 -1.9,-0.9 -3,-2 z m 5.60465,-2.51937 c 1.13187,-1.72745 1.46787,-3.64629 1.06896,-6.10453 -0.31999,-1.97184 -0.32696,-4.85936 -0.0155,-6.41671 0.31147,-1.55734 1.19081,-3.07118 1.95409,-3.36408 0.76329,-0.2929 2.00184,-0.29691 2.75234,-0.009 0.7505,0.28799 1.86586,1.62387 2.47856,2.96861 0.61271,1.34475 1.79519,2.44499 2.62774,2.44499 0.83255,0 2.73377,-1.3693 4.22494,-3.04288 1.68227,-1.88806 3.4879,-2.93173 4.75772,-2.75 1.80819,0.25878 2.10471,1.19157 2.54649,8.01084 0.35669,5.50588 0.99953,8.21643 2.24286,9.45714 1.39776,1.39482 1.99178,1.49083 3,0.48489 0.85938,-0.85744 1.35496,-5.74803 1.56631,-15.45714 0.23952,-11.00351 -0.007,-14.63027 -1.09441,-16.10031 -0.9903,-1.33876 -2.11331,-1.71933 -3.814,-1.29248 -1.32573,0.33274 -4.10447,2.87409 -6.17498,5.64746 -2.9364,3.93318 -4.37284,5.04248 -6.52956,5.04248 -1.95966,0 -3.24083,-0.8055 -4.39865,-2.76553 -0.8985,-1.52105 -2.77404,-3.99605 -4.16785,-5.5 -1.42741,-1.54012 -3.6002,-2.73438 -4.97497,-2.73438 -1.34242,0 -2.71391,0.7118 -3.04775,1.58179 -0.33385,0.86998 -0.60699,7.97998 -0.60699,15.8 0,9.72527 0.3792,14.59741 1.2,15.41821 0.66,0.66 1.54963,1.2 1.97695,1.2 0.42732,0 1.51978,-1.13372 2.4277,-2.51937 z m 64.12397,3.6104 c -0.97425,-0.34771 -2.65514,-2.08544 -3.7353,-3.86161 -1.8027,-2.9643 -2.38505,-3.22942 -7.09375,-3.22942 -4.58535,0 -5.4701,0.37149 -8.3357,3.5 -1.81129,1.97746 -4.16742,3.5 -5.41626,3.5 -1.21571,0 -2.50759,-0.77453 -2.87086,-1.72117 -0.38145,-0.99407 1.3758,-7.64768 4.15967,-15.75 2.65108,-7.71586 5.69306,-15.26633 6.75996,-16.77883 1.43617,-2.03601 2.78188,-2.75 5.18315,-2.75 1.83579,0 4.15369,0.84811 5.34099,1.95425 1.27174,1.18481 3.9368,7.66552 6.76873,16.45974 2.69354,8.36445 4.40935,15.33013 4.05285,16.45336 -0.34003,1.07134 -1.1636,2.15219 -1.83017,2.40188 -0.66656,0.2497 -2.00905,0.16951 -2.98331,-0.1782 z m 3.08825,-3.89893 c 0.17429,-1.18319 -1.28821,-6.89775 -3.25,-12.69902 -1.96178,-5.80128 -3.56687,-11.14978 -3.56687,-11.88557 0,-0.73579 -0.93266,-2.52348 -2.07258,-3.97265 -1.3265,-1.68638 -3.03638,-2.62935 -4.75,-2.61955 -1.47258,0.008 -3.24946,0.37838 -3.94862,0.82212 -0.69916,0.44375 -2.18572,3.24936 -3.30346,6.23469 -1.11775,2.98533 -3.35821,9.00151 -4.9788,13.36928 -1.6206,4.36778 -2.94654,8.98028 -2.94654,10.25 0,1.26973 0.59081,2.3086 1.31291,2.3086 0.7221,0 2.60629,-1.35 4.18709,-3 2.58783,-2.70111 3.49131,-3 9.0684,-3 5.92153,0 6.31353,0.15642 8.90416,3.55292 1.49047,1.9541 3.23138,3.38135 3.86869,3.17167 0.63731,-0.20969 1.30134,-1.34931 1.47562,-2.53249 z M 342.60318,170.7015 c -1.18217,-0.86443 -1.66452,-2.28694 -1.44113,-4.25 0.24974,-2.19449 0.92652,-3.03443 2.64083,-3.27745 1.26778,-0.17972 2.95528,0.21288 3.75,0.87244 0.79473,0.65957 1.44496,2.25328 1.44496,3.54158 0,1.29238 -0.86705,2.8064 -1.93426,3.37756 -1.06384,0.56935 -2.10283,1.03518 -2.30887,1.03518 -0.20604,0 -1.17422,-0.58469 -2.15153,-1.29931 z m 4.89466,-3.21439 c 0,-1.29852 -0.77909,-2.09695 -2.25,-2.30585 -1.65701,-0.23533 -2.25,0.18196 -2.25,1.58333 0,1.04659 0.31556,2.21844 0.70124,2.60412 0.38568,0.38568 1.39818,0.56702 2.25,0.40297 0.85182,-0.16404 1.54876,-1.1921 1.54876,-2.28457 z m 21.20723,17.74269 c -1.34308,-1.48409 -1.65613,-4.55277 -1.78709,-17.5179 -0.11367,-11.2527 0.19403,-16.14373 1.08299,-17.21486 0.94254,-1.13569 3.52525,-1.49623 10.71819,-1.49623 6.7336,0 10.48251,0.47742 12.95244,1.64948 1.91181,0.90721 4.17387,2.71453 5.0268,4.01626 1.06785,1.62975 1.40708,3.8622 1.08935,7.16886 -0.27031,2.81326 -1.39623,6.06648 -2.71856,7.85503 l -2.25715,3.05295 2.57566,4.83837 c 2.25193,4.23023 2.40631,5.09483 1.2283,6.87871 -0.74105,1.12219 -2.3204,2.18573 -3.50968,2.36342 -1.47838,0.22089 -3.26708,-0.88616 -5.6551,-3.5 -1.92103,-2.10269 -4.36203,-4.82985 -5.42445,-6.06035 -1.14521,-1.32639 -2.56219,-1.99533 -3.48031,-1.64302 -0.95199,0.36532 -1.54862,1.82784 -1.54862,3.79615 0,1.76103 -0.5625,3.91745 -1.25,4.79204 -0.6875,0.87458 -2.187,1.86695 -3.33222,2.20526 -1.34528,0.39741 -2.65851,-0.0217 -3.71055,-1.18417 z m 4.5799,-1.47899 c 0.91816,-0.6875 2.03435,-3.05 2.48042,-5.25 0.67214,-3.31501 1.25929,-4.05265 3.42866,-4.30744 1.43969,-0.16909 3.1173,0.28091 3.72803,1 0.61072,0.71909 2.12903,2.8765 3.37402,4.79424 1.24499,1.91774 3.48951,3.91792 4.98782,4.44485 1.91652,0.674 3.07833,0.60394 3.91857,-0.2363 0.92581,-0.92581 0.69981,-2.2123 -1.00514,-5.72161 -1.20973,-2.48998 -2.19951,-5.23173 -2.19951,-6.09276 0,-0.86104 0.88817,-2.69465 1.97372,-4.0747 1.08554,-1.38005 2.25344,-4.00025 2.59533,-5.82267 0.37129,-1.97913 0.0791,-4.45519 -0.72558,-6.14855 -0.9643,-2.02929 -2.76774,-3.33392 -6.34533,-4.59028 -3.86135,-1.356 -6.70396,-1.61623 -12.49814,-1.14414 -4.125,0.33609 -7.83061,1.12594 -8.23469,1.75522 -0.40408,0.62928 -0.74158,7.69164 -0.75,15.69414 -0.0105,10.00173 0.3598,14.92511 1.18469,15.75 0.66,0.66 1.47399,1.2 1.80887,1.2 0.33488,0 1.36009,-0.5625 2.27826,-1.25 z m 4.93538,-17.3067 c -1.51985,-1.06455 -2.22251,-2.58209 -2.22251,-4.8 0,-1.78382 0.54,-3.7833 1.2,-4.4433 0.66,-0.66 2.84026,-1.2 4.84501,-1.2 2.26124,0 4.27331,0.69425 5.3,1.82874 0.91025,1.00581 1.6481,2.69331 1.63968,3.75 -0.008,1.05669 -0.35508,2.45561 -0.77035,3.1087 -0.41528,0.65309 -2.01268,1.66559 -3.54979,2.25 -1.53711,0.58441 -3.11533,1.06256 -3.50714,1.06256 -0.39182,0 -1.71253,-0.70052 -2.9349,-1.5567 z m 8.20221,-2.36011 c 1.3797,-1.52456 1.50783,-2.34071 0.62612,-3.9882 -0.60971,-1.13925 -2.29023,-2.36795 -3.73448,-2.73044 -1.44425,-0.36248 -3.34376,-0.20934 -4.22114,0.34032 -0.87737,0.54966 -1.73167,1.90984 -1.89844,3.02261 -0.16677,1.11278 0.42788,2.75432 1.32143,3.64787 0.89356,0.89356 2.64776,1.62465 3.89823,1.62465 1.25047,0 3.0542,-0.86257 4.00828,-1.91681 z m 20.79779,21.36011 c -2.1371,-1.49688 -2.22251,-2.16344 -2.22251,-17.34502 0,-14.02546 0.20419,-15.97309 1.82874,-17.44329 1.00581,-0.91025 2.78998,-1.65499 3.96482,-1.65499 1.17484,0 2.60191,0.87042 3.17126,1.93426 0.58593,1.09483 1.03518,8.66487 1.03518,17.44329 0,14.89299 -0.0883,15.57088 -2.22251,17.06575 -1.22237,0.85618 -2.47225,1.5567 -2.77749,1.5567 -0.30524,0 -1.55512,-0.70052 -2.77749,-1.5567 z m 5.20606,-2.01473 c 1.28132,-1.28131 1.57143,-4.19827 1.57143,-15.8 0,-9.73333 -0.37912,-14.60769 -1.2,-15.42857 -0.66,-0.66 -1.99417,-1.2 -2.96482,-1.2 -0.97065,0 -2.23065,0.87042 -2.8,1.93426 -0.56935,1.06384 -1.03518,7.71371 -1.03518,14.77749 0,10.00567 0.34394,13.33428 1.5567,15.06574 0.85619,1.22238 1.94905,2.22251 2.42858,2.22251 0.47952,0 1.57901,-0.70714 2.44329,-1.57143 z m 12.57143,2.94045 c -0.825,-0.3295 -2.0625,-1.30833 -2.75,-2.17518 -0.87567,-1.10412 -1.25,-6.11413 -1.25,-16.72998 0,-13.69689 0.18543,-15.3217 1.9286,-16.89924 1.64024,-1.4844 3.54658,-1.69447 12.75,-1.40499 8.34592,0.26251 11.72544,0.79789 14.77335,2.34037 2.70505,1.36897 4.62526,3.35679 6.08594,6.30022 1.17369,2.36512 2.86628,5.03252 3.7613,5.92754 1.50309,1.5031 1.67859,1.48018 2.29886,-0.30022 0.36935,-1.06015 1.47395,-3.81374 2.45466,-6.1191 1.40491,-3.30249 2.85404,-4.73423 6.83197,-6.75 2.77686,-1.40714 6.55044,-2.55844 8.38573,-2.55844 1.8353,0 5.63525,1.14531 8.44434,2.54514 4.11221,2.0492 5.53902,3.46193 7.32228,7.25 1.21816,2.58767 2.44291,6.39601 2.72166,8.46298 0.31106,2.30649 -0.17548,5.58973 -1.25961,8.5 -0.97153,2.60803 -2.71878,5.81238 -3.88275,7.12076 -1.16398,1.30838 -3.56438,2.99588 -5.33421,3.75 -1.76984,0.75412 -5.27179,1.37112 -7.78212,1.37112 -2.51033,0 -6.01228,-0.617 -7.78212,-1.37112 -1.76983,-0.75412 -4.22191,-2.4616 -5.44905,-3.79441 -1.22714,-1.33281 -2.83866,-4.17797 -3.58114,-6.32259 -0.74249,-2.14462 -1.80575,-4.05123 -2.36281,-4.23692 -0.55706,-0.18569 -2.40887,2.28161 -4.11513,5.48288 -2.29647,4.30863 -4.09029,6.30196 -6.90602,7.6741 -2.71814,1.32459 -6.65774,1.95101 -13.80373,2.19489 -5.5,0.1877 -10.675,0.0717 -11.5,-0.25781 z m 22.10648,-2.51907 c 2.11118,-0.63252 4.72615,-1.97701 5.81105,-2.98775 1.0849,-1.01074 2.75446,-4.31821 3.71013,-7.34995 1.65506,-5.25045 1.65323,-5.77985 -0.0385,-11.14661 -0.97684,-3.09889 -2.86224,-6.64098 -4.18978,-7.8713 -1.42321,-1.31899 -4.77035,-2.6745 -8.15655,-3.3032 -3.35406,-0.62274 -8.7381,-0.76604 -12.94371,-0.3445 -3.96047,0.39697 -7.56047,1.08007 -8,1.51801 -0.43952,0.43793 -0.94506,7.02661 -1.12342,14.64151 -0.30241,12.91141 -0.18438,13.98517 1.75,15.91955 1.77872,1.77872 3.30455,2.07429 10.70827,2.07429 4.74869,0 10.36131,-0.51752 12.4725,-1.15005 z m -14.10648,-5.58695 c -1.375,-0.25555 -2.83061,-0.98176 -3.23469,-1.61382 -0.40408,-0.63205 -0.74158,-4.55067 -0.75,-8.70805 -0.009,-4.5393 0.48403,-8.2059 1.23469,-9.17857 0.73728,-0.95535 3.50892,-1.88891 6.75722,-2.27602 4.71472,-0.56187 5.89845,-0.34858 8.22589,1.48219 1.52719,1.20128 3.19208,3.89658 3.79885,6.14998 0.79649,2.95793 0.76962,4.97924 -0.10232,7.69638 -0.65037,2.0267 -1.87035,4.47241 -2.71105,5.43491 -1.0823,1.23908 -2.87009,1.71024 -6.12358,1.61382 -2.52725,-0.0749 -5.72001,-0.34527 -7.09501,-0.60082 z m 12.56699,-2.7249 c 0.88721,-1.35405 1.84701,-4.20581 2.1329,-6.33725 0.34104,-2.54271 -0.0503,-4.97786 -1.13815,-7.08146 -0.91187,-1.76335 -2.76514,-3.71057 -4.11838,-4.32715 -1.76931,-0.80615 -3.09007,-0.81945 -4.7019,-0.0473 -1.2328,0.59056 -3.02896,1.32542 -3.99146,1.63303 -1.38461,0.44251 -1.7848,1.8186 -1.91667,6.59068 -0.0917,3.31726 -0.20416,6.77873 -0.25,7.69216 -0.0516,1.02812 1.24996,2.14196 3.41667,2.92392 1.925,0.69473 4.72713,1.29738 6.22695,1.33922 1.8473,0.0515 3.24729,-0.71807 4.34004,-2.38582 z m 44.53513,7.17457 c 1.86883,-1.25803 4.03684,-3.61633 4.8178,-5.24067 0.78095,-1.62434 1.62067,-5.04258 1.86603,-7.59609 0.24536,-2.55351 -0.11153,-6.38271 -0.79309,-8.50933 -0.68156,-2.12662 -2.19628,-4.91837 -3.36603,-6.2039 -1.16976,-1.28552 -3.64429,-2.97302 -5.49895,-3.75 -1.85467,-0.77697 -5.00467,-1.4028 -7,-1.39072 -1.99534,0.0121 -5.46202,0.855 -7.70374,1.87315 -2.75368,1.25067 -4.61894,2.99563 -5.75,5.37916 -1.09972,2.3175 -1.66908,6.04947 -1.6594,10.87686 0.008,4.04188 0.57717,8.46036 1.26457,9.81885 0.68741,1.3585 2.77232,3.496 4.63314,4.75 2.6188,1.76481 4.78526,2.28002 9.58755,2.28002 4.80701,0 6.96946,-0.51512 9.60212,-2.28733 z m -16.10257,-5.21322 c -0.68494,-0.8253 -1.4704,-3.49719 -1.74546,-5.93752 -0.27506,-2.44034 -0.19466,-6.0652 0.17868,-8.05523 0.37333,-1.99004 1.55368,-4.49315 2.62301,-5.56248 1.18497,-1.18497 3.31102,-1.94422 5.44422,-1.94422 2.1332,0 4.25925,0.75925 5.44422,1.94422 1.06933,1.06933 2.24975,3.57283 2.62318,5.56334 0.37342,1.99052 0.43665,5.42554 0.14052,7.6334 -0.29614,2.20785 -1.32131,4.87934 -2.27816,5.93666 -1.24847,1.37954 -3.07328,1.92238 -6.4623,1.92238 -2.97866,0 -5.18244,-0.55411 -5.96791,-1.50055 z m 11.17171,-1.15444 c 1.43236,-1.29626 1.82874,-3.13865 1.82874,-8.5 0,-5.51168 -0.38958,-7.23459 -2,-8.84501 -1.1,-1.1 -2.92958,-2 -4.06574,-2 -1.13616,0 -2.92088,0.45765 -3.96604,1.01701 -1.04516,0.55935 -2.39657,2.86003 -3.00313,5.11262 -0.60655,2.25259 -0.79596,5.95744 -0.4209,8.23299 0.37507,2.27556 1.13616,4.69988 1.69132,5.38738 0.55516,0.6875 2.60635,1.25 4.55819,1.25 1.95185,0 4.37175,-0.74474 5.37756,-1.65499 z m 35.33559,8.25275 -2.65013,-2.65013 0.32164,-15.05654 c 0.28921,-13.53849 0.51735,-15.19943 2.26277,-16.47381 1.27728,-0.93258 4.5262,-1.40977 9.5,-1.39532 5.17757,0.0151 8.81901,0.60062 11.55887,1.85877 2.2,1.01025 4.76201,2.69513 5.69336,3.74419 0.93134,1.04906 2.19032,4.12492 2.79771,6.83525 0.6074,2.71032 0.81135,7.27302 0.45323,10.13933 -0.35812,2.86631 -1.45147,6.52752 -2.42965,8.13602 -0.97819,1.6085 -3.51916,3.75407 -5.64659,4.76792 -2.28032,1.08672 -7.01703,2.02831 -11.53957,2.29391 -7.25357,0.42599 -7.8159,0.30615 -10.32164,-2.19959 z m 21.17683,-1.54114 c 2.60882,-1.18444 4.80979,-3.11021 5.84696,-5.11587 1.26858,-2.45317 1.58094,-5.22019 1.31632,-11.66062 -0.32984,-8.02752 -0.50325,-8.58386 -3.51415,-11.27408 -2.01346,-1.79903 -5.2173,-3.25547 -8.79514,-3.99823 -3.1165,-0.64698 -7.50437,-0.85896 -9.83282,-0.47503 -2.31267,0.38134 -4.76735,1.14756 -5.45485,1.70272 -0.89842,0.72548 -1.25,5.17996 -1.25,15.83724 0,13.06682 0.20784,14.94893 1.75,15.84715 0.9625,0.56061 4.9,1.02308 8.75,1.02773 4.75657,0.006 8.34083,-0.60031 11.18368,-1.89101 z m -13.48368,-5.25662 c -0.75751,-0.75751 -1.2,-4.55556 -1.2,-10.3 0,-5.74444 0.44249,-9.54249 1.2,-10.3 0.66,-0.66 2.62431,-1.2 4.36514,-1.2 1.74083,0 4.31825,0.90704 5.72761,2.01564 1.40936,1.1086 3.08962,3.61293 3.73392,5.56518 0.6443,1.95224 0.89005,5.04956 0.54611,6.88291 -0.34394,1.83336 -1.54618,4.50403 -2.67164,5.93482 -1.62746,2.06898 -2.91158,2.60145 -6.27372,2.60145 -2.32508,0 -4.76742,-0.54 -5.42742,-1.2 z m 10.72742,-2.43486 c 1.46176,-1.85832 2.07258,-4.09136 2.07258,-7.57692 0,-4.12895 -0.48093,-5.423 -2.92308,-7.86514 -1.60769,-1.6077 -3.99269,-2.92308 -5.3,-2.92308 -1.3073,0 -2.91692,0.54 -3.57692,1.2 -0.7358,0.7358 -1.2,4.33333 -1.2,9.3 0,4.96667 0.4642,8.5642 1.2,9.3 0.66,0.66 2.65234,1.2 4.42742,1.2 2.29556,0 3.82584,-0.76076 5.3,-2.63486 z m 20.64401,10.06343 c -1.29946,-1.29946 -1.57143,-4.38009 -1.57143,-17.8 0,-11.28889 0.36526,-16.59383 1.2,-17.42857 0.75286,-0.75286 4.5035,-1.2 10.06574,-1.2 4.87616,0 9.73616,0.46583 10.8,1.03518 1.10294,0.59028 1.93426,2.08635 1.93426,3.48095 0,1.71995 -0.66772,2.59573 -2.25,2.9511 -1.2375,0.27793 -4.22917,0.62401 -6.64816,0.76905 -2.86267,0.17165 -4.77498,0.86507 -5.47752,1.9862 -0.77859,1.24248 -0.76611,2.03573 0.0448,2.84663 0.61829,0.61829 3.53318,1.41818 6.47753,1.77753 5.13632,0.62687 5.35336,0.77499 5.35336,3.65336 0,2.88355 -0.20283,3.0204 -5.22545,3.52545 -2.87399,0.28899 -5.72869,1.02869 -6.34378,1.64378 -0.61508,0.61508 -0.95932,1.95363 -0.76497,2.97455 0.28374,1.49055 1.53346,1.95549 6.34378,2.36015 3.29473,0.27717 6.55292,0.86622 7.24042,1.30902 0.6875,0.4428 1.25,1.65301 1.25,2.68936 0,1.03636 -1.00013,2.5848 -2.22251,3.44099 -1.5732,1.10191 -4.6199,1.5567 -10.42857,1.5567 -6.12672,0 -8.60425,-0.39819 -9.77749,-1.57143 z m 18.84678,-1.03556 c 0.86999,-0.33384 1.58179,-1.40636 1.58179,-2.38337 0,-0.99684 -0.98737,-2.04098 -2.25,-2.37935 -1.2375,-0.33164 -4.0725,-0.60913 -6.3,-0.61664 -2.2275,-0.008 -4.59,-0.55365 -5.25,-1.21365 -0.66,-0.66 -1.2,-1.86207 -1.2,-2.67126 0,-0.80919 0.74474,-2.29419 1.65499,-3.3 1.09625,-1.21135 3.05437,-1.82874 5.8,-1.82874 2.27975,0 4.6743,-0.52929 5.32122,-1.17621 0.85892,-0.85892 0.87984,-1.5333 0.0775,-2.5 -0.60421,-0.72808 -3.04298,-1.32379 -5.41945,-1.32379 -3.33143,0 -4.67732,-0.50893 -5.87756,-2.22251 -0.85618,-1.22237 -1.5567,-2.54023 -1.5567,-2.92857 0,-0.38833 0.70714,-1.41321 1.57143,-2.27749 0.94655,-0.94655 3.29992,-1.57143 5.91821,-1.57143 2.39073,0 5.05859,-0.27314 5.92857,-0.60699 0.86999,-0.33384 1.58179,-1.45027 1.58179,-2.48095 0,-1.13228 -0.92883,-2.10708 -2.34684,-2.46297 -1.29076,-0.32397 -5.61388,-0.39374 -9.60693,-0.15505 -4.70194,0.28106 -7.56938,0.92234 -8.13785,1.81997 -0.48277,0.76229 -0.88465,7.93349 -0.89307,15.93599 -0.0105,10.00173 0.3598,14.92511 1.18469,15.75 0.72603,0.72603 4.24849,1.2 8.91821,1.2 4.24502,0 8.43002,-0.27314 9.3,-0.60699 z m 64.44257,0.69651 c -2.25492,-1.8248 -2.37353,-2.5535 -2.64513,-16.25 -0.20536,-10.35553 0.0794,-15.0341 1.02503,-16.83952 0.72016,-1.375 2.26717,-2.6381 3.4378,-2.8069 1.32437,-0.19096 2.73153,0.55418 3.72496,1.97251 1.24067,1.7713 1.59656,4.8809 1.59656,13.94991 0,9.71948 0.26444,11.77198 1.58179,12.27749 0.86998,0.33385 3.37456,0.60699 5.56574,0.60699 2.19117,0 4.85437,0.46583 5.91821,1.03518 1.06384,0.56935 1.93426,1.89384 1.93426,2.9433 0,1.04946 -1.00013,2.60863 -2.22251,3.46482 -1.54236,1.08031 -4.56871,1.5567 -9.88921,1.5567 -6.05649,0 -8.16254,-0.40125 -10.0275,-1.91048 z m 19.97636,-2.46969 c 0.19781,-1.0341 -0.24713,-2.26471 -0.98875,-2.73469 -0.74161,-0.46998 -3.69506,-0.86141 -6.56321,-0.86983 -4.12255,-0.0121 -5.43164,-0.42045 -6.25,-1.94957 -0.56935,-1.06384 -1.03518,-6.85874 -1.03518,-12.87755 0,-8.50743 -0.33389,-11.2204 -1.5,-12.18819 -1.19672,-0.99319 -1.80328,-0.99319 -3,0 -1.19932,0.99535 -1.5,3.98207 -1.5,14.89994 0,10.83801 0.3266,14.12133 1.58312,15.91527 1.46706,2.09451 2.21775,2.23914 10.23875,1.97251 7.55016,-0.25097 8.70156,-0.52785 9.01527,-2.16789 z m 13.16235,2.13017 c -1.81295,-1.2375 -4.12949,-3.81798 -5.14788,-5.7344 -1.46743,-2.76144 -1.84855,-5.66621 -1.83687,-14 0.009,-6.44028 0.50317,-11.48448 1.27503,-13.0156 0.69316,-1.375 2.29864,-2.64866 3.56773,-2.83036 1.26909,-0.18169 3.17032,0.45055 4.22497,1.40499 1.64104,1.48512 1.91753,3.14553 1.91753,11.51526 0,5.37895 0.44096,10.93974 0.97992,12.3573 0.53896,1.41757 2.09553,3.08569 3.45904,3.70695 1.99338,0.90824 2.97697,0.80335 5.02008,-0.53534 2.4841,-1.62765 2.54096,-1.92944 2.54096,-13.48687 0,-10.47094 0.22396,-12.02463 1.95971,-13.59546 1.30668,-1.18254 2.78029,-1.56756 4.42229,-1.15544 1.67471,0.42032 2.76401,1.65803 3.40467,3.86852 0.51814,1.78775 0.85579,7.30045 0.75034,12.25045 -0.10546,4.95 -0.53621,10.48994 -0.95723,12.31099 -0.51538,2.2292 -2.09106,4.27123 -4.82267,6.25 -3.52858,2.55609 -4.93039,2.93901 -10.75927,2.93901 -5.30696,0 -7.38823,-0.46836 -9.99835,-2.25 z m 20.31435,-2.04021 c 2.73518,-2.08622 3.5238,-3.50858 4.04216,-7.29042 0.3542,-2.58418 0.644,-8.26529 0.644,-12.62468 0,-4.3594 -0.46583,-8.79659 -1.03518,-9.86043 -0.56935,-1.06384 -1.93049,-1.93426 -3.02475,-1.93426 -1.21554,0 -2.36899,0.99794 -2.96482,2.5651 -0.53639,1.4108 -0.97525,6.93568 -0.97525,12.27749 0,7.17201 -0.40717,10.29372 -1.5567,11.9349 -1.06882,1.52596 -2.58123,2.22251 -4.82569,2.22251 -2.20992,0 -4.04408,-0.82505 -5.66144,-2.54665 -2.21202,-2.3546 -2.37616,-3.25511 -2.17642,-11.94045 0.11882,-5.16659 -0.22188,-10.54559 -0.75711,-11.95335 -0.6737,-1.77197 -1.71709,-2.55955 -3.3909,-2.55955 -1.32977,0 -2.69091,0.7118 -3.02475,1.58179 -0.33385,0.86998 -0.60475,6.83248 -0.60202,13.25 0.005,10.59375 0.2117,11.92503 2.25,14.45721 1.23477,1.53395 4.04503,3.45101 6.24503,4.26014 2.20222,0.80994 6.11592,1.30966 8.70784,1.11184 3.11688,-0.23787 5.85622,-1.2352 8.106,-2.95119 z m 19.1572,1.85588 c -2.38962,-1.4326 -4.75691,-3.94194 -5.81803,-6.16712 -0.98399,-2.06345 -2.02642,-5.80976 -2.31651,-8.32513 -0.37913,-3.28734 0.0867,-6.20283 1.65646,-10.36776 1.68311,-4.4656 3.0947,-6.39706 6.15567,-8.42272 2.59201,-1.71531 5.78489,-2.77874 9.19107,-3.0612 3.3577,-0.27845 6.54555,0.1213 8.93758,1.12075 2.0823,0.87005 4.23724,2.69265 4.89783,4.14249 0.97615,2.14241 0.89667,2.87181 -0.46082,4.22931 -1.3564,1.35639 -2.08779,1.43656 -4.2244,0.46306 -1.4212,-0.64754 -4.16741,-1.17735 -6.10268,-1.17735 -1.93528,0 -4.37383,0.45765 -5.41899,1.01701 -1.04516,0.55935 -2.39657,2.86003 -3.00313,5.11262 -0.60655,2.25259 -0.79596,5.95744 -0.4209,8.23299 0.37507,2.27556 1.13616,4.69988 1.69132,5.38738 0.55516,0.6875 2.72772,1.25 4.82792,1.25 2.10019,0 4.09855,-0.45307 4.44079,-1.00682 0.34224,-0.55376 -0.30621,-2.31072 -1.44099,-3.90437 -1.13477,-1.59366 -2.06323,-3.52558 -2.06323,-4.29318 0,-0.7676 0.54,-1.93563 1.2,-2.59563 0.66,-0.66 3.135,-1.2 5.5,-1.2 2.96667,0 4.92016,0.62016 6.3,2 1.5502,1.5502 2,3.33333 2,7.92857 0,4.26056 -0.48121,6.40978 -1.71034,7.63891 -0.94069,0.94069 -3.17624,2.32284 -4.96788,3.07143 -1.79165,0.7486 -5.8595,1.35683 -9.03966,1.35163 -4.32306,-0.007 -6.79879,-0.61897 -9.81108,-2.42487 z m 19.82862,-1.2052 c 1.76019,-0.90175 3.53095,-2.13925 3.93503,-2.75 0.40408,-0.61076 0.74158,-2.76868 0.75,-4.79537 0.008,-2.0267 -0.40233,-4.78337 -0.91277,-6.12595 -0.65275,-1.71685 -1.89726,-2.58329 -4.1949,-2.92051 -1.79675,-0.2637 -4.07912,-0.26705 -5.07192,-0.007 -0.99281,0.25962 -1.8051,1.13608 -1.8051,1.94768 0,0.8116 0.89009,2.60721 1.97799,3.99024 1.47647,1.87704 1.73029,2.97743 1.00106,4.34001 -0.53731,1.00397 -1.88752,2.11441 -3.00046,2.46765 -1.11294,0.35323 -3.33233,0.35478 -4.93196,0.003 -1.59964,-0.35134 -3.41883,-1.25379 -4.04266,-2.00545 -0.62382,-0.75166 -1.38619,-3.80797 -1.69414,-6.79181 -0.32374,-3.13666 -0.0516,-6.9655 0.64521,-9.07674 0.66282,-2.00838 2.11976,-4.14109 3.23765,-4.73936 1.11788,-0.59828 4.97952,-0.93232 8.58141,-0.74233 3.9501,0.20837 6.68858,-0.0674 6.90088,-0.69499 0.19359,-0.57224 -0.27468,-1.89745 -1.04061,-2.94491 -1.05171,-1.43831 -2.97217,-2.00505 -7.84588,-2.31538 -5.15718,-0.32839 -7.28621,0.014 -10.60029,1.70472 -2.36138,1.20468 -4.88816,3.51079 -5.86832,5.35582 -1.17794,2.21731 -1.73274,5.62805 -1.75745,10.80425 -0.0269,5.63187 0.42143,8.26236 1.75506,10.29774 0.98515,1.50353 3.22923,3.61052 4.98684,4.6822 2.27212,1.3854 5.01627,1.9496 9.49533,1.95226 3.87675,0.002 7.53054,-0.62684 9.5,-1.63579 z m 17.59822,1.3522 c -1.86883,-1.25803 -3.97587,-3.48912 -4.6823,-4.95797 -0.70643,-1.46885 -1.52212,-7.75205 -1.81264,-13.96267 -0.39212,-8.3826 -0.1824,-11.93616 0.81395,-13.79203 0.96406,-1.7957 2.17069,-2.5 4.28311,-2.5 2.13305,0 3.28838,0.68676 4.20573,2.5 0.77129,1.52455 1.27054,6.49933 1.27953,12.75 0.0128,8.9049 0.2772,10.51246 2.01474,12.25 1.1,1.1 2.81399,2 3.80887,2 0.99488,0 2.68238,-0.63785 3.75,-1.41746 1.69496,-1.23769 1.98358,-2.91801 2.2759,-13.25 0.25426,-8.9871 0.71237,-12.25337 1.90499,-13.58254 0.86362,-0.9625 2.37495,-1.75 3.35852,-1.75 0.98357,0 2.48883,1.00013 3.34502,2.22251 1.16018,1.65639 1.5567,4.80236 1.5567,12.35077 0,5.57055 -0.49268,11.65792 -1.09484,13.5275 -0.60216,1.86957 -2.70214,4.86172 -4.66661,6.64922 -3.28208,2.98641 -4.11399,3.25 -10.25728,3.25 -5.30843,0 -7.3854,-0.47114 -10.08339,-2.28733 z m 17.78308,-0.65483 c 3.38907,-1.5387 4.38239,-2.62362 5.24442,-5.72804 0.58491,-2.10639 1.06598,-8.6122 1.06904,-14.45736 0.004,-7.79629 -0.36026,-10.93117 -1.36767,-11.76725 -0.75529,-0.62683 -2.07779,-0.86934 -2.93889,-0.5389 -0.86111,0.33043 -1.81598,1.8007 -2.12194,3.26725 -0.30596,1.46655 -0.48769,6.50131 -0.40384,11.18835 0.0887,4.96012 -0.3433,9.4482 -1.03368,10.73819 -0.65237,1.21897 -2.29814,2.4954 -3.65726,2.83652 -1.35913,0.34112 -3.58315,0.34112 -4.94228,0 -1.35912,-0.34112 -3.04662,-1.6274 -3.75,-2.85841 -0.713,-1.24786 -1.50009,-7.05909 -1.77886,-13.1337 -0.39993,-8.71487 -0.83347,-11.10495 -2.16618,-11.94201 -1.20595,-0.75744 -2.10365,-0.68343 -3.25,0.26795 -1.26799,1.05234 -1.58382,3.48998 -1.58382,12.22413 0,7.31047 0.48245,12.06434 1.46236,14.4096 1.05225,2.51838 2.66481,4.04567 5.75,5.44592 2.3582,1.0703 5.86264,1.946 7.78764,1.946 1.925,0 5.38143,-0.85421 7.68096,-1.89824 z m 18.31904,1.70035 c -2.48701,-1.30794 -2.50144,-1.39723 -2.77612,-17.17888 -0.23862,-13.7103 -0.0479,-16.11631 1.40499,-17.72171 1.40793,-1.55574 3.18806,-1.8576 10.95469,-1.8576 7.0972,0 9.64238,0.36879 10.84501,1.57143 0.86429,0.86428 1.57143,2.18773 1.57143,2.94098 0,0.75326 -0.5625,1.73361 -1.25,2.17857 -0.6875,0.44496 -4.17074,1.03402 -7.74054,1.30902 -5.40296,0.41622 -6.55224,0.82405 -6.85874,2.4339 -0.20251,1.06365 0.44174,2.52615 1.43167,3.25 0.98993,0.72386 3.68376,1.3161 5.98629,1.3161 2.59979,0 4.6846,0.60026 5.50089,1.58382 0.94982,1.14447 1.02492,2.04603 0.27074,3.25 -0.67877,1.0836 -2.89568,1.84101 -6.34031,2.16618 -3.36521,0.31768 -5.66521,1.08857 -6.30745,2.11408 -0.55596,0.88774 -0.72835,2.35024 -0.38308,3.25 0.48402,1.26135 1.99238,1.63592 6.58772,1.63592 4.08481,0 6.45436,0.49441 7.53138,1.57143 0.86429,0.86428 1.57143,1.90328 1.57143,2.30887 0,0.40559 -0.63872,1.61095 -1.41937,2.67857 -1.17354,1.60493 -2.86224,1.99075 -9.75,2.22761 -5.46343,0.18789 -9.19107,-0.16603 -10.83063,-1.02829 z m 19.03517,-2.30057 c 0.93443,-1.12592 0.98172,-1.84073 0.17512,-2.64733 -0.60773,-0.60773 -3.94116,-1.37616 -7.40762,-1.70762 -5.99605,-0.57335 -6.31835,-0.7394 -6.62493,-3.41314 -0.17724,-1.54576 0.21536,-3.45826 0.87245,-4.25 0.65708,-0.79174 2.90279,-1.43953 4.99047,-1.43953 2.08767,0 4.50757,-0.27314 5.37755,-0.60699 0.86999,-0.33384 1.58179,-1.1857 1.58179,-1.89301 0,-0.70731 -0.7118,-1.55917 -1.58179,-1.89301 -0.86998,-0.33385 -3.28988,-0.60699 -5.37755,-0.60699 -2.08768,0 -4.33339,-0.64779 -4.99047,-1.43953 -0.65709,-0.79174 -1.04969,-2.70424 -0.87245,-4.25 0.28742,-2.50663 0.7547,-2.8382 4.32226,-3.06699 2.2,-0.14109 5.4625,-0.49898 7.25,-0.79532 1.88727,-0.31287 3.25,-1.13399 3.25,-1.95829 0,-0.78073 -0.97356,-1.94054 -2.16347,-2.57736 -1.34538,-0.72002 -4.82195,-0.96764 -9.19391,-0.65483 -5.70301,0.40805 -7.37145,0.92416 -8.83653,2.73346 -1.53267,1.89277 -1.80609,4.18167 -1.80609,15.11964 0,11.55589 0.20689,13.09611 2,14.88922 1.66149,1.66149 3.33333,2 9.87756,2 5.87852,0 8.20238,-0.3914 9.15761,-1.54238 z m 10.82561,1.63073 c -2.29317,-1.85691 -2.3595,-2.33658 -2.31614,-16.75 0.0297,-9.85641 0.46114,-15.59378 1.28518,-17.08835 0.73103,-1.32589 2.18923,-2.25 3.55038,-2.25 1.2704,0 3.16653,0.94665 4.21362,2.10367 1.67509,1.85096 1.8655,3.42026 1.58504,13.06325 -0.21653,7.44477 0.0637,11.42036 0.87363,12.39633 0.74231,0.89443 3.05833,1.43675 6.1357,1.43675 2.71881,0 5.81371,0.46583 6.87755,1.03518 1.06384,0.56935 1.93426,1.89384 1.93426,2.9433 0,1.04946 -1.00013,2.60863 -2.22251,3.46482 -1.5965,1.11823 -4.66363,1.5567 -10.88921,1.5567 -7.04324,0 -9.10894,-0.3581 -11.0275,-1.91165 z m 21.97603,-2.46852 c 0.19799,-1.0341 -0.2468,-2.26471 -0.98842,-2.73469 -0.74161,-0.46998 -3.62089,-0.86141 -6.39839,-0.86983 -2.7775,-0.008 -5.59,-0.55531 -6.25,-1.21531 -0.78608,-0.78608 -1.2,-4.94794 -1.2,-12.06574 0,-5.97616 -0.46583,-11.73616 -1.03518,-12.8 -0.56935,-1.06384 -1.82935,-1.93426 -2.8,-1.93426 -0.97065,0 -2.30482,0.54 -2.96482,1.2 -0.81881,0.81881 -1.2,5.63806 -1.2,15.17126 0,11.69972 0.27408,14.27411 1.68573,15.83397 1.45935,1.61256 2.9686,1.82458 11.23842,1.57874 8.43024,-0.2506 9.59498,-0.50489 9.91266,-2.16414 z m -238.43019,0.86412 c -0.34732,-1.38382 -0.39323,-3.29632 -0.10202,-4.25 0.2912,-0.95367 1.96328,-5.55895 3.71572,-10.23395 1.75244,-4.675 3.83314,-10.3 4.62378,-12.5 0.79064,-2.2 2.36901,-4.7875 3.5075,-5.75 1.13848,-0.9625 3.29167,-1.75 4.78487,-1.75 1.53822,0 3.60802,0.97519 4.77556,2.25 1.13337,1.2375 3.0593,5.4 4.27985,9.25 1.22055,3.85 3.07169,9.10842 4.11365,11.68538 1.04196,2.57696 1.89447,6.73946 1.89447,9.25 0,4.39728 -0.10914,4.56462 -2.97695,4.56462 -2.15668,0 -3.45913,-0.75773 -4.7269,-2.75 -0.96247,-1.5125 -2.21035,-3.08061 -2.77305,-3.48469 -0.56271,-0.40408 -3.1377,-0.74158 -5.72221,-0.75 -4.20329,-0.0137 -4.98078,0.35398 -7.36869,3.48469 -1.7229,2.25885 -3.50727,3.5 -5.03184,3.5 -1.68977,0 -2.54203,-0.71627 -2.99374,-2.51605 z m 30.29623,-3.37604 c -0.26407,-1.98435 -2.30605,-8.70765 -4.53772,-14.94066 -2.23168,-6.23301 -4.58689,-11.97051 -5.23381,-12.75 -0.64691,-0.77949 -2.64101,-1.41725 -4.43132,-1.41725 -1.79031,0 -3.71881,0.5625 -4.28555,1.25 -0.56673,0.6875 -2.00891,3.95 -3.20483,7.25 -1.19591,3.3 -2.63378,7.575 -3.19525,9.5 -0.56147,1.925 -1.87187,5.38227 -2.91201,7.68283 -1.04013,2.30055 -1.62052,4.88805 -1.28976,5.75 0.33076,0.86194 1.36861,1.56717 2.30633,1.56717 0.93772,0 2.70305,-1.35 3.92295,-3 2.03078,-2.74678 2.71859,-3 8.14863,-3 4.17827,0 6.31163,0.46439 7.22006,1.57168 0.70919,0.86442 2.06672,2.42921 3.01675,3.47731 1.01773,1.12281 2.39042,1.65119 3.34148,1.28623 1.20969,-0.46419 1.49386,-1.52349 1.13405,-4.22731 z m -16.99027,-9.72867 c -0.39192,-0.39191 -0.71258,-1.90156 -0.71258,-3.35478 0,-1.45321 0.57437,-3.4277 1.27638,-4.38776 0.80318,-1.0984 1.9186,-1.49911 3.00863,-1.08082 0.95274,0.3656 1.99322,1.70449 2.31218,2.97533 0.31896,1.27083 0.42372,3.13369 0.23282,4.1397 -0.20695,1.09048 -1.3683,1.94858 -2.87598,2.125 -1.39088,0.16275 -2.84954,-0.0247 -3.24145,-0.41667 z m 4.65799,-2.60494 c 0.71746,-1.13741 0.62656,-2.07283 -0.31124,-3.20281 -1.01067,-1.21778 -1.64881,-1.32715 -2.69201,-0.46138 -0.75203,0.62413 -1.36732,1.90468 -1.36732,2.84567 0,0.94099 0.30938,2.02026 0.6875,2.39839 0.37812,0.37812 1.13348,0.53884 1.67856,0.35714 0.54508,-0.18169 1.44711,-1.05334 2.00451,-1.93701 z M 49.554546,126.7783 c -0.856187,-1.22237 -1.556704,-3.165 -1.556704,-4.31693 0,-1.2653 2.477531,-4.46358 6.258351,-8.079 3.442098,-3.29152 10.754598,-9.96743 16.249998,-14.83536 5.49541,-4.86793 10.21665,-9.13208 10.49165,-9.47589 0.275,-0.34381 4.775,-4.42053 10,-9.05939 5.225,-4.63886 11.273799,-10.02654 13.441769,-11.97261 2.16798,-1.94607 7.34298,-6.73619 11.5,-10.64471 4.15703,-3.90851 11.60823,-10.61626 16.55823,-14.90609 4.95,-4.28984 9.45,-8.3462 10,-9.01414 0.55,-0.66793 3.60501,-3.29769 6.78891,-5.8439 3.5487,-2.83794 6.79634,-4.62947 8.39219,-4.62947 1.63493,0 4.68921,1.74118 8.21109,4.68096 3.08429,2.57453 6.28281,5.40986 7.10781,6.30074 0.825,0.89088 4.86437,4.52194 8.97637,8.06904 4.112,3.54709 14.19225,12.67673 22.40054,20.28808 8.20829,7.61136 17.66892,16.09933 21.02363,18.86216 3.3547,2.76284 7.91639,6.88537 10.13709,9.16118 2.22069,2.27581 9.97478,9.49439 17.23131,16.04128 7.25652,6.54689 13.47458,12.78846 13.8179,13.87017 0.38266,1.20566 -0.13209,2.9844 -1.33021,4.59656 -1.07818,1.45078 -3.16897,2.7742 -4.66343,2.95184 -2.02967,0.24126 -4.01101,-0.79431 -7.9011,-4.12959 -2.85565,-2.44839 -9.0171,-7.94388 -13.6921,-12.21222 -4.675,-4.26834 -12.55,-11.4418 -17.5,-15.94101 -4.95,-4.49922 -11.025,-9.93098 -13.5,-12.07057 -2.475,-2.1396 -7.88729,-7.05783 -12.02731,-10.9294 -4.14002,-3.87157 -11.74047,-10.8461 -16.88989,-15.49896 -5.14942,-4.65286 -11.70768,-10.39036 -14.57391,-12.75 -2.86624,-2.35964 -6.06579,-4.29021 -7.11012,-4.29016 -1.04432,6e-5 -5.49877,3.14814 -9.89877,6.99574 -4.4,3.8476 -12.35811,10.93506 -17.68468,15.7499 -5.32658,4.81484 -13.45538,12.12926 -18.064,16.25426 -4.60862,4.125 -15.066349,13.575 -23.239409,21 -8.17305,7.425 -18.49425,16.74949 -22.936,20.72108 -6.39968,5.72227 -8.738708,7.22708 -11.269205,7.25 -2.188048,0.0198 -3.683346,-0.67072 -4.75,-2.19359 z m 16.313285,-7.30381 c 5.29651,-4.68947 14.21631,-12.67697 19.82179,-17.75 5.60547,-5.07302 15.416649,-13.94868 21.802619,-19.72368 6.38597,-5.775 15.97468,-14.43989 21.30823,-19.25531 5.33355,-4.81542 13.65195,-12.12792 18.48533,-16.25 4.83338,-4.12208 9.40864,-7.49469 10.16724,-7.49469 0.75861,0 4.25624,2.3625 7.77251,5.25 3.51627,2.8875 10.39156,8.85 15.27842,13.25 4.88686,4.4 12.7641,11.6 17.50499,16 4.74088,4.4 14.41726,13.175 21.50305,19.5 7.08579,6.325 16.29745,14.65 20.47035,18.5 4.1729,3.85 10.0945,9.1375 13.1591,11.75 3.0646,2.6125 6.52016,4.75 7.67901,4.75 1.15885,0 2.57284,-0.87042 3.14219,-1.93426 0.56935,-1.06384 1.03518,-2.80649 1.03518,-3.87255 0,-1.21889 -4.89175,-6.34658 -13.18003,-13.81574 -7.24902,-6.5326 -16.36152,-14.87676 -20.25,-18.54259 C 227.67933,86.16984 219.32284,78.55883 212.99784,72.92231 206.67284,67.2858 198.78523,60.16011 195.46981,57.08745 192.15439,54.0148 185.11295,47.56622 179.82217,42.75728 174.53139,37.94834 168.244,32.37597 165.8502,30.37423 c -2.3938,-2.00173 -5.35526,-4.0975 -6.58102,-4.65726 -1.82173,-0.83192 -2.99491,-0.48809 -6.42531,1.88305 -2.30815,1.59543 -7.60526,6.06588 -11.77134,9.93432 -4.16608,3.86843 -9.8757,9.04343 -12.68805,11.5 -2.81234,2.45656 -13.83734,12.39054 -24.5,22.07551 -10.662649,9.68497 -20.551659,18.70881 -21.975569,20.05297 -1.4239,1.34417 -6.3739,5.74571 -11,9.78121 -4.62609,4.0355 -11.44857,10.2173 -15.161069,13.73735 -3.7125,3.52004 -6.75,6.9568 -6.75,7.63725 0,0.68044 0.700517,2.2373 1.556704,3.45967 0.856187,1.22238 2.485184,2.22251 3.619992,2.22251 1.170094,0 6.232103,-3.69103 11.693293,-8.52632 z M 234.19784,86.80081 c -0.82921,-0.82921 -1.2,-5.94794 -1.2,-16.56574 0,-8.45116 -0.44626,-16.19958 -0.99168,-17.21872 -0.54543,-1.01914 -2.3294,-2.14679 -3.96439,-2.50589 -1.7503,-0.38443 -4.10682,-0.10935 -5.73068,0.66895 -2.16975,1.03993 -2.92131,2.28158 -3.5238,5.82163 -0.42121,2.47487 -1.53215,5.06227 -2.46877,5.74977 -0.93662,0.6875 -2.46708,1.25 -3.40103,1.25 -0.93394,0 -2.73528,-0.83987 -4.00296,-1.86638 -1.8818,-1.52379 -2.38212,-3.07934 -2.72565,-8.4743 -0.23142,-3.63435 -0.14483,-7.70731 0.19242,-9.05102 0.33725,-1.34371 2.12955,-3.38027 3.9829,-4.5257 2.94035,-1.81724 4.94739,-2.08212 15.75167,-2.07886 10.49933,0.003 12.86679,0.29935 15.5706,1.94798 2.14261,1.30644 3.53499,3.19149 4.24443,5.74626 0.58068,2.09111 1.05579,10.32702 1.05579,18.30202 0,7.975 -0.46718,16.18221 -1.03818,18.23823 -0.571,2.05603 -1.88891,4.19353 -2.92868,4.75 -1.03978,0.55647 -3.18009,1.01177 -4.75625,1.01177 -1.57616,0 -3.40574,-0.54 -4.06574,-1.2 z m 8.35887,-1.21744 c 1.77286,-1.29457 1.96856,-2.95607 2.25755,-19.1673 0.17403,-9.76242 0.0501,-18.81102 -0.27544,-20.108 -0.32552,-1.29697 -1.48041,-3.24669 -2.56642,-4.3327 -1.76283,-1.76283 -3.36351,-1.97456 -14.92751,-1.97456 -7.36311,0 -14.00454,0.47914 -15.38973,1.11027 -1.34022,0.61065 -2.9364,2.20683 -3.54705,3.54706 -0.61065,1.34023 -1.11027,4.18631 -1.11027,6.32462 0,2.13832 0.47815,5.14549 1.06256,6.6826 0.58441,1.53711 1.59691,3.13451 2.25,3.54979 0.65309,0.41527 2.21108,0.76193 3.46219,0.77035 1.52949,0.0103 2.59427,-0.82508 3.25,-2.54979 0.53639,-1.4108 0.97525,-3.62866 0.97525,-4.92857 0,-1.29991 0.75614,-3.11961 1.68031,-4.04378 1.29355,-1.29355 2.9259,-1.57701 7.09204,-1.23152 3.14237,0.26059 5.78605,1.04009 6.30438,1.85888 0.49095,0.77555 0.89954,8.17246 0.90796,16.43758 0.0122,11.96429 0.33263,15.48053 1.57201,17.25 0.85619,1.22238 2.34518,2.22251 3.30887,2.22251 0.9637,0 2.62568,-0.63785 3.6933,-1.41744 z"
       id="path180" />
  </g>
</svg>
